<svg xmlns="http://www.w3.org/2000/svg" viewBox="0 0 64 64" width="64" height="64">
  <!-- Cabinet body -->
  <path d="M12 4h40c2 0 3 1 3 3v50l-3 3H12l-3-3V7c0-2 1-3 3-3z" fill="#ff6600"/>
  <!-- Screen bezel -->
  <rect x="16" y="10" width="32" height="22" rx="2" fill="#1a1a1a"/>
  <!-- Screen -->
  <rect x="18" y="12" width="28" height="18" rx="1" fill="#1aff66"/>
  <!-- Screen glare -->
  <rect x="20" y="14" width="8" height="3" rx="1" fill="#66ffaa" opacity="0.5"/>
  <!-- Control panel -->
  <path d="M14 36h36v12H14z" fill="#e65c00"/>
  <!-- Joystick base -->
  <circle cx="24" cy="42" r="4" fill="#1a1a1a"/>
  <!-- Joystick stick -->
  <rect x="23" y="36" width="2" height="6" rx="1" fill="#333"/>
  <!-- Joystick knob -->
  <circle cx="24" cy="35" r="2.5" fill="#ff3300"/>
  <!-- Buttons -->
  <circle cx="38" cy="40" r="3" fill="#ff3300"/>
  <circle cx="46" cy="40" r="3" fill="#ffcc00"/>
  <circle cx="42" cy="45" r="3" fill="#3399ff"/>
  <!-- Coin slot area -->
  <rect x="26" y="51" width="12" height="3" rx="1" fill="#1a1a1a"/>
  <!-- Coin slot -->
  <rect x="29" y="52" width="6" height="1" rx="0.5" fill="#cc5200"/>
  <!-- Cabinet legs -->
  <rect x="14" y="57" width="6" height="4" rx="1" fill="#cc5200"/>
  <rect x="44" y="57" width="6" height="4" rx="1" fill="#cc5200"/>
</svg>
